<?xml version="1.0" encoding="UTF-8" standalone="no"?>
<!-- Created with Inkscape (http://www.inkscape.org/) -->

<svg
   xmlns:dc="http://purl.org/dc/elements/1.1/"
   xmlns:cc="http://creativecommons.org/ns#"
   xmlns:rdf="http://www.w3.org/1999/02/22-rdf-syntax-ns#"
   xmlns:svg="http://www.w3.org/2000/svg"
   xmlns="http://www.w3.org/2000/svg"
   version="1.1"
   width="239.26001"
   height="101.71001"
   id="svg2"
   xml:space="preserve"><metadata
     id="metadata8"><rdf:RDF><cc:Work
         rdf:about=""><dc:format>image/svg+xml</dc:format><dc:type
           rdf:resource="http://purl.org/dc/dcmitype/StillImage" /><dc:title></dc:title></cc:Work></rdf:RDF></metadata><defs
     id="defs6"><clipPath
       id="clipPath96"><path
         d="m 110.88,732.3 3.84,0 0,16.68 -3.84,0 0,-16.68 z"
         id="path98" /></clipPath><clipPath
       id="clipPath124"><path
         d="m 162.18,732.48 10.56,0 0,16.5 -10.56,0 0,-16.5 z"
         id="path126" /></clipPath></defs><g
     transform="matrix(1.25,0,0,-1.25,-48.144995,955.655)"
     id="g10"><g
       transform="translate(91.979996,733.02)"
       id="g16"><path
         d="m 0,0 0,-18.66 c 0,-6.36 -5.16,-11.46 -11.58,-11.46 l -11.7,0 2.22,5.1 9.48,0 c 3.54,0 6.48,2.82 6.48,6.36 l 0,13.5 -13.08,0 c -3.54,0 -6.36,-2.88 -6.36,-6.42 l 0,-22.56 -5.22,0 0,22.56 c 0,6.36 5.22,11.58 11.58,11.58 l 7.86,0 0,10.44 -9.72,0 c -7.08,0 -12.78,-5.76 -12.78,-12.78 l 0,-31.8 -5.1,0 0,31.8 c 0,9.84 7.92,17.88 17.88,17.88 l 14.94,0 L -5.1,0 0,0"
         id="path18"
         style="fill:#1574c4;fill-opacity:1;fill-rule:nonzero;stroke:none" /></g><g
       transform="translate(102.42,703.5)"
       id="g20"><path
         d="m 0,0 c -0.18,1.14 -0.9,1.62 -1.8,1.62 -1.56,0 -1.98,-1.5 -1.98,-2.52 0,-0.96 0.42,-2.46 1.98,-2.46 0.84,0 1.56,0.42 1.8,1.62 l 1.8,0 C 1.56,-3.9 0.12,-4.8 -1.86,-4.8 c -2.28,0 -3.72,1.2 -3.72,3.9 0,2.76 1.44,3.9 3.72,3.9 1.5,0 3.42,-0.48 3.66,-3 L 0,0"
         id="path22"
         style="fill:#1574c4;fill-opacity:1;fill-rule:nonzero;stroke:none" /></g><g
       transform="translate(108.96001,701.64)"
       id="g24"><path
         d="m 0,0 c -0.3,-0.18 -0.6,-0.24 -0.9,-0.24 l -0.9,-0.18 c -0.54,0 -0.84,-0.18 -0.84,-0.66 0,-0.54 0.36,-0.84 0.96,-0.84 0.78,0 1.68,0.48 1.68,1.44 L 0,0 z m -4.02,1.08 c 0.24,1.74 1.5,1.98 2.82,1.98 2.16,0 2.7,-0.9 2.7,-1.86 l 0,-2.82 c 0,-0.48 0,-0.78 0.12,-1.14 l -1.56,0 C 0.06,-2.58 0,-2.34 0,-2.1 c -0.54,-0.72 -1.5,-0.84 -2.22,-0.84 -1.2,0 -2.1,0.54 -2.1,1.8 0,1.32 1.08,1.62 1.98,1.74 l 1.62,0.12 c 0.48,0 0.66,0.18 0.66,0.6 0,0.36 -0.3,0.6 -1.26,0.6 -0.66,0 -0.96,0 -1.2,-0.84 l -1.5,0"
         id="path26"
         style="fill:#1574c4;fill-opacity:1;fill-rule:nonzero;stroke:none" /></g><g
       transform="translate(111.42,704.46001)"
       id="g28"><path
         d="m 0,0 1.5,0 0,-1.14 c 0.54,0.9 0.96,1.32 1.86,1.32 0.18,0 0.42,0 0.54,-0.12 l 0,-1.68 C 3.6,-1.5 3.36,-1.44 3.06,-1.44 2.04,-1.44 1.5,-2.1 1.5,-3.12 l 0,-2.46 -1.5,0 L 0,0"
         id="path30"
         style="fill:#1574c4;fill-opacity:1;fill-rule:nonzero;stroke:none" /></g><g
       transform="translate(120.24001,702.3)"
       id="g32"><path
         d="M 0,0 C 0,0.3 -0.42,1.26 -1.56,1.26 -2.76,1.26 -2.94,0.12 -2.94,0 L 0,0 z M 1.5,-1.74 C 1.02,-3.06 -0.12,-3.6 -1.44,-3.6 c -1.92,0 -3.12,0.9 -3.12,3 0,2.1 1.2,3 3.12,3 2.04,0 3,-1.2 3,-3.3 l 0,-0.24 -4.5,0 c 0,-0.54 0.42,-1.32 1.5,-1.32 0.6,0 1.02,0.3 1.26,0.72 l 1.68,0"
         id="path34"
         style="fill:#1574c4;fill-opacity:1;fill-rule:nonzero;stroke:none" /></g><path
       d="m 122.76,700.62 1.74,0 0,-1.74 -1.74,0 0,1.74 z"
       id="path36"
       style="fill:#1574c4;fill-opacity:1;fill-rule:nonzero;stroke:none" /><g
       transform="translate(129.12,704.75999)"
       id="g38"><path
         d="m 0,0 0,-5.88 -0.9,0 0,7.44 1.08,0 3.96,-5.88 0,5.88 0.9,0 0,-7.44 -1.02,0 L 0,0"
         id="path40"
         style="fill:#1574c4;fill-opacity:1;fill-rule:nonzero;stroke:none" /></g><g
       transform="translate(137.58,703.62)"
       id="g42"><path
         d="M 0,0 C -1.2,0 -1.68,-1.02 -1.68,-1.98 -1.68,-3 -1.2,-4.02 0,-4.02 1.26,-4.02 1.68,-3 1.68,-1.98 1.68,-1.02 1.26,0 0,0 z m 0,0.9 c 1.8,0 2.58,-1.32 2.58,-2.88 0,-1.62 -0.78,-2.94 -2.58,-2.94 -1.74,0 -2.64,1.32 -2.64,2.94 0,1.56 0.9,2.88 2.64,2.88"
         id="path44"
         style="fill:#1574c4;fill-opacity:1;fill-rule:nonzero;stroke:none" /></g><g
       transform="translate(150.17999,702.36)"
       id="g46"><path
         d="m 0,0 c 0,0.96 -0.54,1.26 -1.08,1.26 -0.78,0 -1.5,-0.42 -1.5,-1.38 l 0,-3.36 -0.78,0 0,3.48 C -3.36,0.96 -3.9,1.26 -4.5,1.26 -5.28,1.26 -6,0.78 -6,-0.3 l 0,-3.18 -0.84,0 0,5.46 0.84,0 0,-0.84 0.06,0 c 0.36,0.84 1.14,1.02 1.74,1.02 0.6,0 1.2,-0.3 1.56,-1.02 0.36,0.66 0.96,1.02 1.8,1.02 0.48,0 1.74,-0.3 1.74,-1.92 l 0,-3.72 -0.9,0 L 0,0"
         id="path48"
         style="fill:#1574c4;fill-opacity:1;fill-rule:nonzero;stroke:none" /></g><g
       transform="translate(155.52,701.75999)"
       id="g50"><path
         d="M 0,0 C -0.18,-0.24 -0.36,-0.3 -0.84,-0.36 L -1.8,-0.54 c -0.66,-0.06 -1.08,-0.3 -1.08,-0.78 0,-0.54 0.48,-0.9 1.08,-0.9 0.96,0 1.8,0.6 1.8,1.5 L 0,0 z m -3.54,0.9 c 0.12,1.38 0.9,1.86 2.28,1.86 0.9,0 2.1,-0.3 2.1,-1.56 l 0,-2.94 c 0,-0.3 0.12,-0.42 0.36,-0.42 0.06,0 0.24,0 0.3,0 l 0,-0.72 C 1.26,-2.94 1.02,-2.94 0.84,-2.94 c -0.48,0 -0.72,0.18 -0.78,0.78 -0.36,-0.54 -1.2,-0.9 -1.92,-0.9 -1.56,0 -1.86,0.96 -1.86,1.62 0,1.02 0.48,1.5 1.98,1.74 l 0.96,0.06 C -0.3,0.48 0,0.6 0,1.08 0,1.8 -0.6,1.98 -1.26,1.98 -2.04,1.98 -2.7,1.74 -2.7,0.9 l -0.84,0"
         id="path52"
         style="fill:#1574c4;fill-opacity:1;fill-rule:nonzero;stroke:none" /></g><g
       transform="translate(157.62,706.02)"
       id="g54"><path
         d="m 0,0 0.9,0 0,-1.68 1.26,0 0,-0.78 -1.26,0 0,-3.36 c 0,-0.48 0.24,-0.6 0.66,-0.6 0.24,0 0.36,0 0.6,0.06 l 0,-0.9 C 1.86,-7.32 1.56,-7.32 1.2,-7.32 0.36,-7.32 0,-6.78 0,-6.06 l 0,3.6 -0.9,0 0,0.78 0.9,0 L 0,0"
         id="path56"
         style="fill:#1574c4;fill-opacity:1;fill-rule:nonzero;stroke:none" /></g><g
       transform="translate(160.86,706.02)"
       id="g58"><path
         d="m 0,0 0.78,0 0,-1.68 1.38,0 0,-0.78 -1.38,0 0,-3.36 c 0,-0.48 0.3,-0.6 0.78,-0.6 0.12,0 0.36,0 0.6,0.06 l 0,-0.9 C 1.86,-7.32 1.56,-7.32 1.2,-7.32 0.36,-7.32 0,-6.78 0,-6.06 l 0,3.6 -1.02,0 0,0.78 1.02,0 L 0,0"
         id="path60"
         style="fill:#1574c4;fill-opacity:1;fill-rule:nonzero;stroke:none" /></g><g
       transform="translate(167.52,702.12)"
       id="g62"><path
         d="M 0,0 C -0.12,1.02 -0.72,1.5 -1.56,1.5 -2.4,1.5 -3.06,1.02 -3.24,0 L 0,0 z m -3.24,-0.78 c 0,-1.14 0.9,-1.74 1.68,-1.74 0.42,0 1.14,0.24 1.44,0.96 l 0.9,0 c -0.42,-1.32 -1.44,-1.86 -2.34,-1.86 -1.74,0 -2.64,1.32 -2.64,2.94 0,1.56 0.9,2.88 2.64,2.88 1.2,0 2.46,-0.78 2.46,-3.06 l 0,-0.12 -4.14,0"
         id="path64"
         style="fill:#1574c4;fill-opacity:1;fill-rule:nonzero;stroke:none" /></g><g
       transform="translate(169.08,704.34)"
       id="g66"><path
         d="m 0,0 0.9,0 0,-1.02 c 0.42,0.9 1.02,1.2 1.62,1.2 0.12,0 0.3,0 0.42,-0.06 l 0,-1.14 C 2.7,-0.9 2.58,-0.9 2.34,-0.9 1.5,-0.9 0.9,-1.5 0.9,-2.64 l 0,-2.82 -0.9,0 L 0,0"
         id="path68"
         style="fill:#1574c4;fill-opacity:1;fill-rule:nonzero;stroke:none" /></g><g
       transform="translate(181.02,704.34)"
       id="g70"><path
         d="m 0,0 0.9,0 -1.8,-5.46 -0.9,0 -1.08,4.14 -1.14,-4.14 -0.96,0 -1.74,5.46 0.96,0 1.2,-4.14 0.06,0 1.14,4.14 0.9,0 1.2,-4.14 L 0,0"
         id="path72"
         style="fill:#1574c4;fill-opacity:1;fill-rule:nonzero;stroke:none" /></g><g
       transform="translate(182.46001,706.32001)"
       id="g74"><path
         d="m 0,0 0.84,0 0,-2.82 0.06,0 c 0.36,0.84 1.08,1.02 1.74,1.02 1.14,0 1.86,-0.6 1.86,-1.92 l 0,-3.72 -0.78,0 0,3.48 c 0,0.84 -0.48,1.26 -1.38,1.26 -0.78,0 -1.5,-0.48 -1.5,-1.56 l 0,-3.18 L 0,-7.44 0,0"
         id="path76"
         style="fill:#1574c4;fill-opacity:1;fill-rule:nonzero;stroke:none" /></g><g
       transform="translate(191.46001,701.75999)"
       id="g78"><path
         d="M 0,0 C -0.12,-0.24 -0.36,-0.3 -0.78,-0.36 L -1.8,-0.54 c -0.66,-0.06 -1.02,-0.3 -1.02,-0.78 0,-0.54 0.42,-0.9 1.02,-0.9 1.02,0 1.8,0.6 1.8,1.5 L 0,0 z m -3.48,0.9 c 0.12,1.38 0.9,1.86 2.22,1.86 0.9,0 2.1,-0.3 2.1,-1.56 l 0,-2.94 c 0,-0.3 0.06,-0.42 0.36,-0.42 0.12,0 0.24,0 0.3,0 l 0,-0.72 C 1.32,-2.94 1.08,-2.94 0.84,-2.94 c -0.42,0 -0.72,0.18 -0.72,0.78 -0.42,-0.54 -1.2,-0.9 -1.98,-0.9 -1.5,0 -1.8,0.96 -1.8,1.62 0,1.02 0.48,1.5 1.86,1.74 l 1.02,0.06 C -0.3,0.48 0,0.6 0,1.08 0,1.8 -0.6,1.98 -1.26,1.98 -1.98,1.98 -2.7,1.74 -2.7,0.9 l -0.78,0"
         id="path80"
         style="fill:#1574c4;fill-opacity:1;fill-rule:nonzero;stroke:none" /></g><g
       transform="translate(193.67999,706.02)"
       id="g82"><path
         d="m 0,0 0.9,0 0,-1.68 1.26,0 0,-0.78 -1.26,0 0,-3.36 c 0,-0.48 0.18,-0.6 0.66,-0.6 0.24,0 0.36,0 0.6,0.06 l 0,-0.9 C 1.86,-7.32 1.56,-7.32 1.2,-7.32 0.36,-7.32 0,-6.78 0,-6.06 l 0,3.6 -0.9,0 0,0.78 0.9,0 L 0,0"
         id="path84"
         style="fill:#1574c4;fill-opacity:1;fill-rule:nonzero;stroke:none" /></g><path
       d="m 196.74,700.14 1.08,0 0,-1.26 -1.08,0 0,1.26 z"
       id="path86"
       style="fill:#1574c4;fill-opacity:1;fill-rule:nonzero;stroke:none" /><g
       transform="translate(100.02,740.58)"
       id="g88"><path
         d="m 0,0 0,5.46 4.44,0 c 1.2,0 1.8,-0.9 1.8,-2.82 C 6.24,0.9 5.52,0 4.32,0 L 0,0 z m 0,-7.56 0,5.1 5.22,0 c 3,0 4.32,2.4 4.32,5.1 0,3 -1.08,5.34 -4.38,5.34 l -8.1,0 0,-15.54 2.94,0"
         id="path90"
         style="fill:#1574c4;fill-opacity:1;fill-rule:nonzero;stroke:none" /></g><g
       id="g92"><g
         clip-path="url(#clipPath96)"
         id="g94"><g
           transform="translate(113.7,749.03999)"
           id="g100"><path
             d="m 0,0 -2.82,0 0,-12.96 c 0,-1.68 0.48,-2.76 1.2,-3.66 L 0.9,-15.6 C 0.18,-14.76 0,-13.92 0,-12.9 L 0,0"
             id="path102"
             style="fill:#1574c4;fill-opacity:1;fill-rule:nonzero;stroke:none" /></g></g></g><g
       transform="translate(122.94,735.17999)"
       id="g104"><path
         d="m 0,0 c -0.6,-0.24 -1.44,-0.36 -2.28,-0.36 -1.68,0 -2.1,0.18 -2.1,1.68 0,1.5 0.6,1.68 2.1,1.68 C -1.44,3 -0.6,2.94 0,2.82 L 0,0 z m 2.7,5.1 c 0,3.36 -1.62,4.44 -4.98,4.44 -1.56,0 -3.3,-0.3 -4.5,-0.6 L -6.24,6.6 c 0.9,0.36 2.16,0.6 3.42,0.6 C -0.48,7.2 0,6.66 0,4.74 c -0.9,0.12 -1.8,0.3 -2.82,0.3 -2.64,0 -4.5,-0.54 -4.5,-3.78 0,-3 1.2,-3.84 4.8,-3.84 1.68,0 3.78,0.42 5.22,0.9 l 0,6.78"
         id="path106"
         style="fill:#1574c4;fill-opacity:1;fill-rule:nonzero;stroke:none" /></g><g
       transform="translate(130.14,741.89999)"
       id="g108"><path
         d="m 0,0 c 0.66,0.18 1.26,0.24 2.04,0.24 1.92,0 2.4,-0.6 2.4,-3.12 l 0,-6 2.76,0 0,6.3 c 0,4.14 -1.44,5.4 -4.56,5.4 -1.92,0 -4.08,-0.48 -5.46,-1.08 l 0,-10.62 2.82,0 L 0,0"
         id="path110"
         style="fill:#1574c4;fill-opacity:1;fill-rule:nonzero;stroke:none" /></g><g
       transform="translate(141.84,741.89999)"
       id="g112"><path
         d="m 0,0 c 0.66,0.18 1.26,0.24 2.04,0.24 1.92,0 2.4,-0.6 2.4,-3.12 l 0,-6 2.76,0 0,6.3 c 0,4.14 -1.44,5.4 -4.56,5.4 -1.8,0 -4.08,-0.48 -5.4,-1.08 l 0,-10.62 2.76,0 L 0,0"
         id="path114"
         style="fill:#1574c4;fill-opacity:1;fill-rule:nonzero;stroke:none" /></g><g
       transform="translate(153.53999,740.03999)"
       id="g116"><path
         d="M 0,0 C 0.24,1.86 0.84,2.4 2.58,2.4 4.14,2.4 4.74,2.04 4.8,0 L 0,0 z M 6.18,-4.56 C 5.28,-4.86 3.78,-5.04 2.94,-5.04 1.02,-5.04 0,-4.56 0,-2.1 l 7.38,0 C 7.62,3.42 6,4.68 2.4,4.68 c -3.3,0 -5.34,-1.44 -5.34,-6 0,-4.68 2.28,-6.12 5.58,-6.12 1.14,0 2.88,0.3 3.96,0.72 l -0.42,2.16"
         id="path118"
         style="fill:#1574c4;fill-opacity:1;fill-rule:nonzero;stroke:none" /></g><g
       id="g120"><g
         clip-path="url(#clipPath124)"
         id="g122"><g
           transform="translate(169.86,735.3)"
           id="g128"><path
             d="m 0,0 c -0.6,-0.12 -1.44,-0.3 -2.16,-0.3 -1.98,0 -2.64,0.6 -2.64,3.72 0,2.82 0.6,3.6 2.52,3.6 C -0.96,7.02 0,6.6 0,5.94 L 0,0 z M 2.76,13.74 0,13.74 0,8.76 c -0.6,0.3 -1.44,0.66 -2.7,0.66 -3.06,0 -4.98,-1.44 -4.98,-6.12 0,-4.62 1.74,-6 5.52,-6 1.62,0 3.72,0.42 4.92,0.84 l 0,15.6"
             id="path130"
             style="fill:#1574c4;fill-opacity:1;fill-rule:nonzero;stroke:none" /></g></g></g><g
       transform="translate(100.02,719.88)"
       id="g132"><path
         d="m 0,0 0,5.46 4.44,0 c 1.2,0 1.8,-0.9 1.8,-2.76 C 6.24,0.9 5.52,0 4.32,0 L 0,0 z m 0,-7.62 0,5.1 5.22,0 c 3,0 4.32,2.52 4.32,5.1 0,3.12 -1.08,5.4 -4.38,5.4 l -8.1,0 0,-15.6 2.94,0"
         id="path134"
         style="fill:#1574c4;fill-opacity:1;fill-rule:nonzero;stroke:none" /></g><g
       transform="translate(117.72,714.48)"
       id="g136"><path
         d="m 0,0 c -0.66,-0.24 -1.5,-0.42 -2.22,-0.42 -1.74,0 -2.1,0.24 -2.1,1.8 0,1.44 0.48,1.68 2.1,1.68 C -1.44,3.06 -0.6,3 0,2.82 L 0,0 z m 2.7,5.1 c 0,3.36 -1.56,4.38 -4.92,4.38 -1.68,0 -3.42,-0.3 -4.5,-0.6 L -6.3,6.66 c 0.96,0.3 2.28,0.54 3.48,0.54 2.4,0 2.82,-0.48 2.82,-2.52 -0.96,0.24 -1.86,0.3 -2.76,0.3 -2.7,0 -4.5,-0.48 -4.5,-3.72 0,-2.94 1.2,-3.78 4.8,-3.78 1.56,0 3.66,0.3 5.16,0.9 l 0,6.72"
         id="path138"
         style="fill:#1574c4;fill-opacity:1;fill-rule:nonzero;stroke:none" /></g><g
       transform="translate(122.10001,712.25999)"
       id="g140"><path
         d="m 0,0 2.76,0 0,7.92 C 2.76,8.7 4.02,9.18 5.4,9.18 5.94,9.18 6.42,9.12 6.9,9 l 0,2.64 C 6.42,11.7 6.06,11.7 5.7,11.7 4.02,11.7 3.24,11.22 2.76,10.5 l 0,0.9 L 0,11.4 0,0"
         id="path142"
         style="fill:#1574c4;fill-opacity:1;fill-rule:nonzero;stroke:none" /></g><g
       transform="translate(132.3,719.34)"
       id="g144"><path
         d="M 0,0 C 0.24,1.86 0.84,2.46 2.58,2.46 4.14,2.46 4.74,2.04 4.8,0 L 0,0 z M 6.18,-4.56 C 5.28,-4.8 3.78,-5.04 2.94,-5.04 0.96,-5.04 0,-4.5 0,-2.1 l 7.38,0 C 7.56,3.42 6,4.62 2.4,4.62 c -3.3,0 -5.34,-1.38 -5.34,-5.88 0,-4.74 2.28,-6.12 5.58,-6.12 1.14,0 2.82,0.24 3.96,0.6 l -0.42,2.22"
         id="path146"
         style="fill:#1574c4;fill-opacity:1;fill-rule:nonzero;stroke:none" /></g><g
       transform="translate(143.88,721.2)"
       id="g148"><path
         d="m 0,0 c 0.66,0.24 1.32,0.3 2.04,0.3 1.98,0 2.46,-0.66 2.46,-3.12 l 0,-6.12 2.76,0 0,6.42 c 0,4.02 -1.44,5.28 -4.62,5.28 -1.8,0 -4.02,-0.42 -5.46,-0.96 l 0,-10.74 2.82,0 L 0,0"
         id="path150"
         style="fill:#1574c4;fill-opacity:1;fill-rule:nonzero;stroke:none" /></g><g
       transform="translate(160.44,721.2)"
       id="g152"><path
         d="m 0,0 0,2.46 -3.72,0 0,3 -2.76,-1.08 0,-1.92 -1.92,0 0,-2.46 1.92,0 0,-5.1 c 0,-3.36 1.26,-4.14 3.78,-4.14 1.08,0 2.34,0.24 3.12,0.54 l -0.48,2.16 c -0.6,-0.12 -1.2,-0.3 -1.92,-0.3 -1.38,0 -1.74,0.54 -1.74,1.98 L -3.72,0 0,0"
         id="path154"
         style="fill:#1574c4;fill-opacity:1;fill-rule:nonzero;stroke:none" /></g><g
       transform="translate(171.89999,718.8)"
       id="g156"><path
         d="m 0,0 c 0,4.26 -1.44,5.16 -4.14,5.16 -1.14,0 -2.4,-0.36 -3.18,-0.72 l 0,5.16 -2.7,0 0,-16.14 2.7,0 0,8.22 c 0,0.66 1.08,1.02 2.28,1.02 1.74,0 2.22,-1.02 2.22,-2.94 l 0,-6.3 2.82,0 L 0,0"
         id="path158"
         style="fill:#1574c4;fill-opacity:1;fill-rule:nonzero;stroke:none" /></g><g
       transform="translate(176.03999,717.96001)"
       id="g160"><path
         d="M 0,0 C 0,3.24 0.6,3.78 2.52,3.78 4.56,3.78 5.16,3.24 5.16,0 5.16,-3.12 4.56,-3.72 2.52,-3.72 0.6,-3.72 0,-3.12 0,0 z m -2.88,0.12 c 0,-4.74 1.8,-6.12 5.4,-6.12 3.66,0 5.46,1.38 5.46,6.12 C 7.98,4.68 6.18,6 2.52,6 -1.08,6 -2.88,4.68 -2.88,0.12"
         id="path162"
         style="fill:#1574c4;fill-opacity:1;fill-rule:nonzero;stroke:none" /></g><g
       transform="translate(188.16,717.96001)"
       id="g164"><path
         d="M 0,0 C 0,3.24 0.6,3.78 2.58,3.78 4.5,3.78 5.1,3.24 5.1,0 5.1,-3.12 4.5,-3.72 2.58,-3.72 0.6,-3.72 0,-3.12 0,0 z m -2.82,0.12 c 0,-4.74 1.74,-6.12 5.4,-6.12 3.6,0 5.4,1.38 5.4,6.12 0,4.56 -1.8,5.88 -5.4,5.88 -3.6,0 -5.4,-1.32 -5.4,-5.88"
         id="path166"
         style="fill:#1574c4;fill-opacity:1;fill-rule:nonzero;stroke:none" /></g><g
       transform="translate(205.08,714.66)"
       id="g168"><path
         d="m 0,0 c -0.6,-0.18 -1.44,-0.36 -2.28,-0.36 -1.92,0 -2.52,0.6 -2.52,3.78 0,2.76 0.6,3.6 2.52,3.6 C -0.96,7.02 0,6.54 0,5.88 L 0,0 z M 2.76,13.74 0,13.74 0,8.64 C -0.6,9 -1.44,9.3 -2.76,9.3 c -3,0 -4.92,-1.38 -4.92,-6 0,-4.62 1.68,-6 5.4,-6 1.68,0 3.78,0.3 5.04,0.84 l 0,15.6"
         id="path170"
         style="fill:#1574c4;fill-opacity:1;fill-rule:nonzero;stroke:none" /></g><g
       transform="translate(211.98,726.48)"
       id="g172"><path
         d="M 0,0 0.36,0 C 0.6,0 0.78,0.06 0.78,0.3 0.78,0.6 0.48,0.6 0.3,0.6 L 0,0.6 0,0 z m -0.54,0.96 0.9,0 c 0.6,0 0.9,-0.24 0.9,-0.66 0,-0.42 -0.3,-0.6 -0.6,-0.72 l 0.54,-0.9 -0.54,0 -0.48,0.9 -0.18,0 0,-0.9 -0.54,0 0,2.28 z m 0.84,-2.7 c 0.9,0 1.5,0.6 1.5,1.56 0,0.96 -0.6,1.56 -1.5,1.56 -0.9,0 -1.5,-0.6 -1.5,-1.56 0,-0.96 0.6,-1.56 1.5,-1.56 z m 0,3.66 c 1.14,0 2.1,-0.9 2.1,-2.1 0,-1.14 -0.96,-2.1 -2.1,-2.1 -1.2,0 -2.1,0.96 -2.1,2.1 0,1.2 0.9,2.1 2.1,2.1"
         id="path174"
         style="fill:#1574c4;fill-opacity:1;fill-rule:nonzero;stroke:none" /></g></g></svg>