<?xml version="1.0" encoding="UTF-8" standalone="no"?>
<!DOCTYPE svg PUBLIC "-//W3C//DTD SVG 1.1//EN"
 "http://www.w3.org/Graphics/SVG/1.1/DTD/svg11.dtd">
<!-- Generated by graphviz version 2.44.1 (20200629.0846)
 -->
<!-- Title: G Pages: 1 -->
<svg width="844pt" height="624pt"
 viewBox="0.00 0.00 844.00 624.00" xmlns="http://www.w3.org/2000/svg" xmlns:xlink="http://www.w3.org/1999/xlink">
<g id="graph0" class="graph" transform="scale(1 1) rotate(0) translate(4 620)">
<title>G</title>
<polygon fill="white" stroke="transparent" points="-4,4 -4,-620 840,-620 840,4 -4,4"/>
<text text-anchor="middle" x="418" y="-7.4" font-family="Roboto,Arial,sans-serif" font-size="12.00">Living Room Layout</text>
<g id="clust1" class="cluster">
<title>cluster_outer</title>
<polygon fill="none" stroke="black" points="8,-361 8,-608 312,-608 312,-361 8,-361"/>
<text text-anchor="middle" x="160" y="-594.4" font-family="Roboto,Arial,sans-serif" font-size="12.00">Legend</text>
</g>
<!-- Computer -->
<g id="node1" class="node">
<title>Computer</title>
<ellipse fill="#87ceff" stroke="#87ceff" cx="185" cy="-474" rx="46.29" ry="18"/>
<text text-anchor="middle" x="185" y="-470.3" font-family="Times,serif" font-size="14.00">Computer</text>
</g>
<!-- Computer&#45;&gt;Computer -->
<g id="edge2" class="edge">
<title>Computer&#45;&gt;Computer</title>
<path fill="none" stroke="#0000ff" d="M226.64,-481.86C239.27,-481.67 249.15,-479.04 249.15,-474 249.15,-470.45 244.27,-468.1 236.98,-466.95"/>
<polygon fill="#0000ff" stroke="#0000ff" points="236.89,-463.44 226.64,-466.14 236.34,-470.41 236.89,-463.44"/>
<text text-anchor="middle" x="271.15" y="-470.3" font-family="Times,serif" font-size="14.00">ethernet</text>
</g>
<!-- Audio Renderer -->
<g id="node3" class="node">
<title>Audio Renderer</title>
<ellipse fill="#548b54" stroke="#548b54" cx="84" cy="-387" rx="67.69" ry="18"/>
<text text-anchor="middle" x="84" y="-383.3" font-family="Times,serif" font-size="14.00">Audio Renderer</text>
</g>
<!-- Computer&#45;&gt;Audio Renderer -->
<g id="edge3" class="edge">
<title>Computer&#45;&gt;Audio Renderer</title>
<path fill="none" stroke="#548b54" d="M167.09,-457.33C155.68,-447.41 140.55,-434.35 127,-423 122.27,-419.04 117.22,-414.87 112.3,-410.84"/>
<polygon fill="#548b54" stroke="#548b54" points="114.19,-407.87 104.22,-404.26 109.76,-413.29 114.19,-407.87"/>
<text text-anchor="middle" x="160.5" y="-426.8" font-family="Times,serif" font-size="14.00">audio</text>
</g>
<!-- Video Renderer -->
<g id="node4" class="node">
<title>Video Renderer</title>
<ellipse fill="#ffc125" stroke="#ffc125" cx="237" cy="-387" rx="66.89" ry="18"/>
<text text-anchor="middle" x="237" y="-383.3" font-family="Times,serif" font-size="14.00">Video Renderer</text>
</g>
<!-- Computer&#45;&gt;Video Renderer -->
<g id="edge4" class="edge">
<title>Computer&#45;&gt;Video Renderer</title>
<path fill="none" stroke="#ffc125" d="M195.27,-456.21C202.7,-444.06 212.88,-427.43 221.32,-413.63"/>
<polygon fill="#ffc125" stroke="#ffc125" points="224.34,-415.41 226.57,-405.05 218.37,-411.75 224.34,-415.41"/>
<text text-anchor="middle" x="230.5" y="-426.8" font-family="Times,serif" font-size="14.00">video</text>
</g>
<!-- Source -->
<g id="node2" class="node">
<title>Source</title>
<ellipse fill="#ee0000" stroke="#ee0000" cx="185" cy="-561" rx="35.19" ry="18"/>
<text text-anchor="middle" x="185" y="-557.3" font-family="Times,serif" font-size="14.00">Source</text>
</g>
<!-- Source&#45;&gt;Computer -->
<g id="edge1" class="edge">
<title>Source&#45;&gt;Computer</title>
<path fill="none" stroke="#ee0000" d="M185,-542.8C185,-531.16 185,-515.55 185,-502.24"/>
<polygon fill="#ee0000" stroke="#ee0000" points="188.5,-502.18 185,-492.18 181.5,-502.18 188.5,-502.18"/>
<text text-anchor="middle" x="202" y="-513.8" font-family="Times,serif" font-size="14.00">power</text>
</g>
<!-- Misc -->
<g id="node5" class="node">
<title>Misc</title>
<polygon fill="lightgrey" stroke="black" points="111,-492 57,-492 57,-456 111,-456 111,-492"/>
<text text-anchor="middle" x="84" y="-470.3" font-family="Times,serif" font-size="14.00">Misc</text>
</g>
<!-- Misc&#45;&gt;Audio Renderer -->
<g id="edge5" class="edge">
<title>Misc&#45;&gt;Audio Renderer</title>
<path fill="none" stroke="purple" d="M84,-455.8C84,-444.16 84,-428.55 84,-415.24"/>
<polygon fill="purple" stroke="purple" points="87.5,-415.18 84,-405.18 80.5,-415.18 87.5,-415.18"/>
<text text-anchor="middle" x="103.5" y="-426.8" font-family="Times,serif" font-size="14.00">control</text>
</g>
<!-- sig10 -->
<g id="node6" class="node">
<title>sig10</title>
<ellipse fill="#87ceff" stroke="#87ceff" cx="641" cy="-300" rx="29.8" ry="18"/>
<text text-anchor="middle" x="641" y="-296.3" font-family="Times,serif" font-size="14.00">sig10</text>
</g>
<!-- Dell UP3214Q -->
<g id="node14" class="node">
<title>Dell UP3214Q</title>
<ellipse fill="#ffc125" stroke="#ffc125" cx="478" cy="-213" rx="63.89" ry="18"/>
<text text-anchor="middle" x="478" y="-209.3" font-family="Times,serif" font-size="14.00">Dell UP3214Q</text>
</g>
<!-- sig10&#45;&gt;Dell UP3214Q -->
<g id="edge21" class="edge">
<title>sig10&#45;&gt;Dell UP3214Q</title>
<path fill="none" stroke="#ffc125" d="M619.02,-287.54C592.68,-273.8 548.11,-250.56 516.12,-233.88"/>
<polygon fill="#ffc125" stroke="#ffc125" points="517.53,-230.67 507.05,-229.15 514.29,-236.87 517.53,-230.67"/>
<text text-anchor="middle" x="601.5" y="-252.8" font-family="Times,serif" font-size="14.00">DisplayPort</text>
</g>
<!-- sig mbp -->
<g id="node7" class="node">
<title>sig mbp</title>
<ellipse fill="#87ceff" stroke="#87ceff" cx="362" cy="-387" rx="39.79" ry="18"/>
<text text-anchor="middle" x="362" y="-383.3" font-family="Times,serif" font-size="14.00">sig mbp</text>
</g>
<!-- sig mbp&#45;&gt;Dell UP3214Q -->
<g id="edge22" class="edge">
<title>sig mbp&#45;&gt;Dell UP3214Q</title>
<path fill="none" stroke="#ffc125" d="M359.09,-368.74C356.34,-346.87 354.73,-308.8 371,-282 384.74,-259.36 409.2,-242.98 431.27,-231.98"/>
<polygon fill="#ffc125" stroke="#ffc125" points="433,-235.03 440.54,-227.59 430,-228.71 433,-235.03"/>
<text text-anchor="middle" x="395.5" y="-296.3" font-family="Times,serif" font-size="14.00">Mini DP</text>
</g>
<!-- Apple TV 4K -->
<g id="node17" class="node">
<title>Apple TV 4K</title>
<polygon fill="lightgrey" stroke="black" points="521,-318 429,-318 429,-282 521,-282 521,-318"/>
<text text-anchor="middle" x="475" y="-296.3" font-family="Times,serif" font-size="14.00">Apple TV 4K</text>
</g>
<!-- sig mbp&#45;&gt;Apple TV 4K -->
<g id="edge23" class="edge">
<title>sig mbp&#45;&gt;Apple TV 4K</title>
<path fill="none" stroke="purple" d="M380.52,-370.82C392.95,-360.75 409.78,-347.35 425,-336 430.24,-332.09 435.86,-328.04 441.37,-324.13"/>
<polygon fill="purple" stroke="purple" points="443.7,-326.77 449.87,-318.16 439.67,-321.04 443.7,-326.77"/>
<text text-anchor="middle" x="446.5" y="-339.8" font-family="Times,serif" font-size="14.00">AirPlay</text>
</g>
<!-- Chromecast -->
<g id="node22" class="node">
<title>Chromecast</title>
<polygon fill="lightgrey" stroke="black" points="316,-318 234,-318 234,-282 316,-282 316,-318"/>
<text text-anchor="middle" x="275" y="-296.3" font-family="Times,serif" font-size="14.00">Chromecast</text>
</g>
<!-- sig mbp&#45;&gt;Chromecast -->
<g id="edge24" class="edge">
<title>sig mbp&#45;&gt;Chromecast</title>
<path fill="none" stroke="purple" d="M344.27,-370.59C337.51,-364.59 329.8,-357.58 323,-351 314.74,-343.01 305.96,-334.03 298.21,-325.9"/>
<polygon fill="purple" stroke="purple" points="300.55,-323.28 291.13,-318.43 295.47,-328.1 300.55,-323.28"/>
<text text-anchor="middle" x="335.5" y="-339.8" font-family="Times,serif" font-size="14.00">Cast</text>
</g>
<!-- Wall Power -->
<g id="node8" class="node">
<title>Wall Power</title>
<ellipse fill="#ee0000" stroke="#ee0000" cx="736" cy="-561" rx="52.79" ry="18"/>
<text text-anchor="middle" x="736" y="-557.3" font-family="Times,serif" font-size="14.00">Wall Power</text>
</g>
<!-- 1000/1000 Ethernet -->
<g id="node9" class="node">
<title>1000/1000 Ethernet</title>
<ellipse fill="#ee0000" stroke="#ee0000" cx="585" cy="-561" rx="80.69" ry="18"/>
<text text-anchor="middle" x="585" y="-557.3" font-family="Times,serif" font-size="14.00">1000/1000 Ethernet</text>
</g>
<!-- Wifi router -->
<g id="node15" class="node">
<title>Wifi router</title>
<polygon fill="lightgrey" stroke="black" points="623.5,-492 546.5,-492 546.5,-456 623.5,-456 623.5,-492"/>
<text text-anchor="middle" x="585" y="-470.3" font-family="Times,serif" font-size="14.00">Wifi router</text>
</g>
<!-- 1000/1000 Ethernet&#45;&gt;Wifi router -->
<g id="edge6" class="edge">
<title>1000/1000 Ethernet&#45;&gt;Wifi router</title>
<path fill="none" stroke="#0000ff" d="M585,-542.8C585,-531.16 585,-515.55 585,-502.24"/>
<polygon fill="#0000ff" stroke="#0000ff" points="588.5,-502.18 585,-492.18 581.5,-502.18 588.5,-502.18"/>
</g>
<!-- HDTV Antenna -->
<g id="node10" class="node">
<title>HDTV Antenna</title>
<ellipse fill="#ee0000" stroke="#ee0000" cx="761" cy="-300" rx="66.89" ry="18"/>
<text text-anchor="middle" x="761" y="-296.3" font-family="Times,serif" font-size="14.00">HDTV Antenna</text>
</g>
<!-- Homeworx HW130STB -->
<g id="node20" class="node">
<title>Homeworx HW130STB</title>
<polygon fill="lightgrey" stroke="black" points="836,-231 686,-231 686,-195 836,-195 836,-231"/>
<text text-anchor="middle" x="761" y="-209.3" font-family="Times,serif" font-size="14.00">Homeworx HW130STB</text>
</g>
<!-- HDTV Antenna&#45;&gt;Homeworx HW130STB -->
<g id="edge13" class="edge">
<title>HDTV Antenna&#45;&gt;Homeworx HW130STB</title>
<path fill="none" stroke="#ffc125" d="M761,-281.8C761,-270.16 761,-254.55 761,-241.24"/>
<polygon fill="#ffc125" stroke="#ffc125" points="764.5,-241.18 761,-231.18 757.5,-241.18 764.5,-241.18"/>
</g>
<!-- Onkyo TX&#45;NR929 -->
<g id="node11" class="node">
<title>Onkyo TX&#45;NR929</title>
<ellipse fill="#548b54" stroke="#548b54" cx="575" cy="-126" rx="77.19" ry="18"/>
<text text-anchor="middle" x="575" y="-122.3" font-family="Times,serif" font-size="14.00">Onkyo TX&#45;NR929</text>
</g>
<!-- Paradigm Reference Studio 20 v5 -->
<g id="node12" class="node">
<title>Paradigm Reference Studio 20 v5</title>
<ellipse fill="#548b54" stroke="#548b54" cx="575" cy="-39" rx="130.78" ry="18"/>
<text text-anchor="middle" x="575" y="-35.3" font-family="Times,serif" font-size="14.00">Paradigm Reference Studio 20 v5</text>
</g>
<!-- Onkyo TX&#45;NR929&#45;&gt;Paradigm Reference Studio 20 v5 -->
<g id="edge11" class="edge">
<title>Onkyo TX&#45;NR929&#45;&gt;Paradigm Reference Studio 20 v5</title>
<path fill="none" stroke="#548b54" d="M575,-107.8C575,-96.16 575,-80.55 575,-67.24"/>
<polygon fill="#548b54" stroke="#548b54" points="578.5,-67.18 575,-57.18 571.5,-67.18 578.5,-67.18"/>
<text text-anchor="middle" x="612.5" y="-78.8" font-family="Times,serif" font-size="14.00">Banana Plugs</text>
</g>
<!-- Epson WirelessHD -->
<g id="node19" class="node">
<title>Epson WirelessHD</title>
<polygon fill="lightgrey" stroke="black" points="396.5,-231 275.5,-231 275.5,-195 396.5,-195 396.5,-231"/>
<text text-anchor="middle" x="336" y="-209.3" font-family="Times,serif" font-size="14.00">Epson WirelessHD</text>
</g>
<!-- Onkyo TX&#45;NR929&#45;&gt;Epson WirelessHD -->
<g id="edge19" class="edge">
<title>Onkyo TX&#45;NR929&#45;&gt;Epson WirelessHD</title>
<path fill="none" stroke="#ffc125" d="M559.36,-144.12C548.13,-155.3 532.02,-169.23 515,-177 472.67,-196.34 455.62,-186.46 406.45,-194.92"/>
<polygon fill="#ffc125" stroke="#ffc125" points="405.7,-191.5 396.52,-196.8 407,-198.38 405.7,-191.5"/>
<text text-anchor="middle" x="560" y="-165.8" font-family="Times,serif" font-size="14.00">HDMI4</text>
</g>
<!-- Epson 5030UBe -->
<g id="node13" class="node">
<title>Epson 5030UBe</title>
<ellipse fill="#ffc125" stroke="#ffc125" cx="336" cy="-126" rx="68.79" ry="18"/>
<text text-anchor="middle" x="336" y="-122.3" font-family="Times,serif" font-size="14.00">Epson 5030UBe</text>
</g>
<!-- Gigabit switch -->
<g id="node16" class="node">
<title>Gigabit switch</title>
<polygon fill="lightgrey" stroke="black" points="633,-405 537,-405 537,-369 633,-369 633,-405"/>
<text text-anchor="middle" x="585" y="-383.3" font-family="Times,serif" font-size="14.00">Gigabit switch</text>
</g>
<!-- Wifi router&#45;&gt;Gigabit switch -->
<g id="edge7" class="edge">
<title>Wifi router&#45;&gt;Gigabit switch</title>
<path fill="none" stroke="#0000ff" d="M585,-455.8C585,-444.16 585,-428.55 585,-415.24"/>
<polygon fill="#0000ff" stroke="#0000ff" points="588.5,-415.18 585,-405.18 581.5,-415.18 588.5,-415.18"/>
</g>
<!-- Gigabit switch&#45;&gt;sig10 -->
<g id="edge9" class="edge">
<title>Gigabit switch&#45;&gt;sig10</title>
<path fill="none" stroke="#0000ff" d="M596.33,-368.8C604.51,-356.38 615.68,-339.44 624.8,-325.6"/>
<polygon fill="#0000ff" stroke="#0000ff" points="627.86,-327.3 630.44,-317.03 622.02,-323.45 627.86,-327.3"/>
</g>
<!-- Gigabit switch&#45;&gt;Apple TV 4K -->
<g id="edge8" class="edge">
<title>Gigabit switch&#45;&gt;Apple TV 4K</title>
<path fill="none" stroke="#0000ff" d="M562.74,-368.8C546.19,-356.01 523.42,-338.42 505.23,-324.36"/>
<polygon fill="#0000ff" stroke="#0000ff" points="507.28,-321.52 497.23,-318.18 503,-327.06 507.28,-321.52"/>
</g>
<!-- PS4 -->
<g id="node18" class="node">
<title>PS4</title>
<polygon fill="lightgrey" stroke="black" points="593,-318 539,-318 539,-282 593,-282 593,-318"/>
<text text-anchor="middle" x="566" y="-296.3" font-family="Times,serif" font-size="14.00">PS4</text>
</g>
<!-- Gigabit switch&#45;&gt;PS4 -->
<g id="edge10" class="edge">
<title>Gigabit switch&#45;&gt;PS4</title>
<path fill="none" stroke="#0000ff" d="M581.16,-368.8C578.55,-357.16 575.06,-341.55 572.09,-328.24"/>
<polygon fill="#0000ff" stroke="#0000ff" points="575.44,-327.17 569.84,-318.18 568.61,-328.7 575.44,-327.17"/>
</g>
<!-- Apple TV 4K&#45;&gt;Epson WirelessHD -->
<g id="edge16" class="edge">
<title>Apple TV 4K&#45;&gt;Epson WirelessHD</title>
<path fill="none" stroke="#ffc125" d="M446.87,-281.8C425.49,-268.72 395.89,-250.62 372.65,-236.41"/>
<polygon fill="#ffc125" stroke="#ffc125" points="374.44,-233.41 364.09,-231.18 370.79,-239.38 374.44,-233.41"/>
<text text-anchor="middle" x="436" y="-252.8" font-family="Times,serif" font-size="14.00">HDMI1</text>
</g>
<!-- PS4&#45;&gt;Epson WirelessHD -->
<g id="edge18" class="edge">
<title>PS4&#45;&gt;Epson WirelessHD</title>
<path fill="none" stroke="#ffc125" d="M538.77,-284.27C518.12,-273.5 488.82,-259.08 462,-249 451.21,-244.95 429.17,-238.6 406.5,-232.43"/>
<polygon fill="#ffc125" stroke="#ffc125" points="407.34,-229.03 396.77,-229.8 405.51,-235.79 407.34,-229.03"/>
<text text-anchor="middle" x="519" y="-252.8" font-family="Times,serif" font-size="14.00">HDMI3</text>
</g>
<!-- Epson WirelessHD&#45;&gt;Onkyo TX&#45;NR929 -->
<g id="edge12" class="edge">
<title>Epson WirelessHD&#45;&gt;Onkyo TX&#45;NR929</title>
<path fill="none" stroke="#548b54" d="M374.3,-194.98C397.9,-184.79 428.93,-171.93 457,-162 476.3,-155.17 497.68,-148.55 516.88,-142.94"/>
<polygon fill="#548b54" stroke="#548b54" points="518.06,-146.24 526.7,-140.1 516.12,-139.52 518.06,-146.24"/>
<text text-anchor="middle" x="486" y="-165.8" font-family="Times,serif" font-size="14.00">TOSLINK</text>
</g>
<!-- Epson WirelessHD&#45;&gt;Epson 5030UBe -->
<g id="edge20" class="edge">
<title>Epson WirelessHD&#45;&gt;Epson 5030UBe</title>
<path fill="none" stroke="#ffc125" d="M336,-194.8C336,-183.16 336,-167.55 336,-154.24"/>
<polygon fill="#ffc125" stroke="#ffc125" points="339.5,-154.18 336,-144.18 332.5,-154.18 339.5,-154.18"/>
<text text-anchor="middle" x="369.5" y="-165.8" font-family="Times,serif" font-size="14.00">WirelessHD</text>
</g>
<!-- Homeworx HW130STB&#45;&gt;Onkyo TX&#45;NR929 -->
<g id="edge14" class="edge">
<title>Homeworx HW130STB&#45;&gt;Onkyo TX&#45;NR929</title>
<path fill="none" stroke="#ffc125" d="M723.36,-194.8C692.86,-180.86 649.88,-161.22 618.03,-146.66"/>
<polygon fill="#ffc125" stroke="#ffc125" points="619.08,-143.29 608.53,-142.32 616.17,-149.66 619.08,-143.29"/>
<text text-anchor="middle" x="699.5" y="-165.8" font-family="Times,serif" font-size="14.00">TV/CD</text>
</g>
<!-- Nintendo Switch -->
<g id="node21" class="node">
<title>Nintendo Switch</title>
<polygon fill="lightgrey" stroke="black" points="668,-231 560,-231 560,-195 668,-195 668,-231"/>
<text text-anchor="middle" x="614" y="-209.3" font-family="Times,serif" font-size="14.00">Nintendo Switch</text>
</g>
<!-- Nintendo Switch&#45;&gt;Onkyo TX&#45;NR929 -->
<g id="edge15" class="edge">
<title>Nintendo Switch&#45;&gt;Onkyo TX&#45;NR929</title>
<path fill="none" stroke="#ffc125" d="M606.11,-194.8C600.66,-182.93 593.32,-166.93 587.14,-153.45"/>
<polygon fill="#ffc125" stroke="#ffc125" points="590.23,-151.8 582.88,-144.18 583.87,-154.72 590.23,-151.8"/>
<text text-anchor="middle" x="616" y="-165.8" font-family="Times,serif" font-size="14.00">Game1</text>
</g>
<!-- Chromecast&#45;&gt;Epson WirelessHD -->
<g id="edge17" class="edge">
<title>Chromecast&#45;&gt;Epson WirelessHD</title>
<path fill="none" stroke="#ffc125" d="M268.31,-281.65C265.53,-271.46 264.15,-258.72 270,-249 272.69,-244.53 276.16,-240.6 280.11,-237.15"/>
<polygon fill="#ffc125" stroke="#ffc125" points="282.28,-239.89 288.19,-231.1 278.09,-234.29 282.28,-239.89"/>
<text text-anchor="middle" x="292" y="-252.8" font-family="Times,serif" font-size="14.00">HDMI2</text>
</g>
<!-- Apple Remote -->
<g id="node23" class="node">
<title>Apple Remote</title>
<polygon fill="lightgrey" stroke="black" points="519,-405 423,-405 423,-369 519,-369 519,-405"/>
<text text-anchor="middle" x="471" y="-383.3" font-family="Times,serif" font-size="14.00">Apple Remote</text>
</g>
<!-- Apple Remote&#45;&gt;Apple TV 4K -->
<g id="edge25" class="edge">
<title>Apple Remote&#45;&gt;Apple TV 4K</title>
<path fill="none" stroke="purple" d="M471.81,-368.8C472.36,-357.16 473.09,-341.55 473.72,-328.24"/>
<polygon fill="purple" stroke="purple" points="477.22,-328.33 474.19,-318.18 470.23,-328 477.22,-328.33"/>
</g>
</g>
</svg>
